solid OpenSCAD_Model
  facet normal -1 -0 -0
    outer loop
      vertex -100 -100 -10
      vertex -100 -100 0
      vertex -100 110 -10
    endloop
  endfacet
  facet normal -1 0 0
    outer loop
      vertex -100 110 -10
      vertex -100 -100 0
      vertex -100 100 0
    endloop
  endfacet
  facet normal -1 0 0
    outer loop
      vertex -100 110 -10
      vertex -100 100 0
      vertex -100 100 10
    endloop
  endfacet
  facet normal -1 0 0
    outer loop
      vertex -100 110 -10
      vertex -100 100 10
      vertex -100 110 10
    endloop
  endfacet
  facet normal 0 -1 0
    outer loop
      vertex -100 -100 0
      vertex -100 -100 -10
      vertex 110 -100 -10
    endloop
  endfacet
  facet normal 0 -1 0
    outer loop
      vertex 100 -100 0
      vertex 50 -100 0
      vertex 110 -100 -10
    endloop
  endfacet
  facet normal 0 -1 0
    outer loop
      vertex 110 -100 10
      vertex 100 -100 0
      vertex 110 -100 -10
    endloop
  endfacet
  facet normal 0 -1 0
    outer loop
      vertex 50 -100 0
      vertex 30 -100 0
      vertex 110 -100 -10
    endloop
  endfacet
  facet normal 0 -1 0
    outer loop
      vertex 30 -100 0
      vertex 20 -100 0
      vertex 110 -100 -10
    endloop
  endfacet
  facet normal 0 -1 0
    outer loop
      vertex -20 -100 10
      vertex -20 -100 0
      vertex -10 -100 10
    endloop
  endfacet
  facet normal 0 -1 0
    outer loop
      vertex 20 -100 0
      vertex 20 -100 10
      vertex 10 -100 0
    endloop
  endfacet
  facet normal 0 -1 0
    outer loop
      vertex 20 -100 0
      vertex 10 -100 0
      vertex 110 -100 -10
    endloop
  endfacet
  facet normal 0 -1 0
    outer loop
      vertex 10 -100 0
      vertex -10 -100 0
      vertex 110 -100 -10
    endloop
  endfacet
  facet normal 0 -1 0
    outer loop
      vertex -10 -100 0
      vertex -20 -100 0
      vertex 110 -100 -10
    endloop
  endfacet
  facet normal 0 -1 0
    outer loop
      vertex -10 -100 0
      vertex -10 -100 10
      vertex -20 -100 0
    endloop
  endfacet
  facet normal 0 -1 0
    outer loop
      vertex -20 -100 0
      vertex -100 -100 0
      vertex 110 -100 -10
    endloop
  endfacet
  facet normal 0 -1 0
    outer loop
      vertex 50 -100 0
      vertex 50 -100 10
      vertex 30 -100 0
    endloop
  endfacet
  facet normal 0 -1 0
    outer loop
      vertex 10 -100 10
      vertex 10 -100 0
      vertex 20 -100 10
    endloop
  endfacet
  facet normal 0 -1 0
    outer loop
      vertex 30 -100 10
      vertex 30 -100 0
      vertex 50 -100 10
    endloop
  endfacet
  facet normal 0 -1 0
    outer loop
      vertex 100 -100 10
      vertex 100 -100 0
      vertex 110 -100 10
    endloop
  endfacet
  facet normal -0 -0 -1
    outer loop
      vertex -100 -100 -10
      vertex -100 110 -10
      vertex 110 -100 -10
    endloop
  endfacet
  facet normal 0 0 -1
    outer loop
      vertex 110 -100 -10
      vertex -100 110 -10
      vertex 110 110 -10
    endloop
  endfacet
  facet normal 0 1 0
    outer loop
      vertex -100 110 -10
      vertex -100 110 10
      vertex -30 110 0
    endloop
  endfacet
  facet normal 0 1 0
    outer loop
      vertex -100 110 -10
      vertex -30 110 0
      vertex 110 110 -10
    endloop
  endfacet
  facet normal 0 1 0
    outer loop
      vertex 110 110 0
      vertex 110 110 -10
      vertex -10 110 0
    endloop
  endfacet
  facet normal 0 1 0
    outer loop
      vertex -30 110 0
      vertex -20 110 0
      vertex 110 110 -10
    endloop
  endfacet
  facet normal 0 1 0
    outer loop
      vertex -10 110 0
      vertex -20 110 10
      vertex -10 110 10
    endloop
  endfacet
  facet normal 0 1 -0
    outer loop
      vertex -20 110 10
      vertex -10 110 0
      vertex -20 110 0
    endloop
  endfacet
  facet normal 0 1 0
    outer loop
      vertex -20 110 0
      vertex -10 110 0
      vertex 110 110 -10
    endloop
  endfacet
  facet normal 0 1 0
    outer loop
      vertex -30 110 0
      vertex -100 110 10
      vertex -30 110 10
    endloop
  endfacet
  facet normal 0 -0 1
    outer loop
      vertex -100 110 10
      vertex -100 100 10
      vertex -30 100 10
    endloop
  endfacet
  facet normal 0 0 1
    outer loop
      vertex -30 110 10
      vertex -100 110 10
      vertex -30 100 10
    endloop
  endfacet
  facet normal 0 -1 0
    outer loop
      vertex -100 100 10
      vertex -100 100 0
      vertex -30 100 0
    endloop
  endfacet
  facet normal 0 -1 0
    outer loop
      vertex -30 100 10
      vertex -100 100 10
      vertex -30 100 0
    endloop
  endfacet
  facet normal 0 0 1
    outer loop
      vertex 110 110 0
      vertex -20 -90 0
      vertex -10 -90 0
    endloop
  endfacet
  facet normal -0 0 1
    outer loop
      vertex 10 -90 0
      vertex 110 110 0
      vertex -10 -90 0
    endloop
  endfacet
  facet normal 0 0 1
    outer loop
      vertex -20 -100 0
      vertex -20 -90 0
      vertex -30 110 0
    endloop
  endfacet
  facet normal 0 0 1
    outer loop
      vertex -10 -100 0
      vertex 10 -100 0
      vertex -10 -90 0
    endloop
  endfacet
  facet normal 0 0 1
    outer loop
      vertex 10 -100 0
      vertex 10 -90 0
      vertex -10 -90 0
    endloop
  endfacet
  facet normal -0 0 1
    outer loop
      vertex 20 -90 0
      vertex 110 110 0
      vertex 10 -90 0
    endloop
  endfacet
  facet normal -0 0 1
    outer loop
      vertex 30 -90 0
      vertex 110 110 0
      vertex 20 -90 0
    endloop
  endfacet
  facet normal 0 0 1
    outer loop
      vertex 20 -100 0
      vertex 30 -100 0
      vertex 20 -90 0
    endloop
  endfacet
  facet normal 0 0 1
    outer loop
      vertex 30 -100 0
      vertex 30 -90 0
      vertex 20 -90 0
    endloop
  endfacet
  facet normal -0 0 1
    outer loop
      vertex 50 -90 0
      vertex 110 110 0
      vertex 30 -90 0
    endloop
  endfacet
  facet normal -0 0 1
    outer loop
      vertex 100 -90 0
      vertex 110 110 0
      vertex 50 -90 0
    endloop
  endfacet
  facet normal 0 0 1
    outer loop
      vertex 50 -100 0
      vertex 100 -100 0
      vertex 50 -90 0
    endloop
  endfacet
  facet normal 0 0 1
    outer loop
      vertex 100 -100 0
      vertex 100 -90 0
      vertex 50 -90 0
    endloop
  endfacet
  facet normal -0 0 1
    outer loop
      vertex -20 100 0
      vertex -30 110 0
      vertex -20 -90 0
    endloop
  endfacet
  facet normal -0 0 1
    outer loop
      vertex 110 -90 0
      vertex 110 110 0
      vertex 100 -90 0
    endloop
  endfacet
  facet normal 0 0 1
    outer loop
      vertex 110 110 0
      vertex -10 100 0
      vertex -20 -90 0
    endloop
  endfacet
  facet normal 0 0 1
    outer loop
      vertex 110 110 0
      vertex -10 110 0
      vertex -10 100 0
    endloop
  endfacet
  facet normal 0 -0 1
    outer loop
      vertex -30 100 0
      vertex -100 100 0
      vertex -20 -100 0
    endloop
  endfacet
  facet normal 0 0 1
    outer loop
      vertex -20 110 0
      vertex -30 110 0
      vertex -20 100 0
    endloop
  endfacet
  facet normal 0 -0 1
    outer loop
      vertex -30 110 0
      vertex -30 100 0
      vertex -20 -100 0
    endloop
  endfacet
  facet normal 0 -0 1
    outer loop
      vertex -100 100 0
      vertex -100 -100 0
      vertex -20 -100 0
    endloop
  endfacet
  facet normal 0 0 1
    outer loop
      vertex -10 100 0
      vertex -20 100 0
      vertex -20 -90 0
    endloop
  endfacet
  facet normal -1 -0 -0
    outer loop
      vertex -20 -100 0
      vertex -20 -100 10
      vertex -20 -90 0
    endloop
  endfacet
  facet normal -1 0 0
    outer loop
      vertex -20 -90 0
      vertex -20 -100 10
      vertex -20 -90 10
    endloop
  endfacet
  facet normal 0 -0 1
    outer loop
      vertex -20 -90 10
      vertex -20 -100 10
      vertex -10 -100 10
    endloop
  endfacet
  facet normal 0 0 1
    outer loop
      vertex -10 -90 10
      vertex -20 -90 10
      vertex -10 -100 10
    endloop
  endfacet
  facet normal 1 0 -0
    outer loop
      vertex -10 -100 10
      vertex -10 -100 0
      vertex -10 -90 0
    endloop
  endfacet
  facet normal 1 0 0
    outer loop
      vertex -10 -90 10
      vertex -10 -100 10
      vertex -10 -90 0
    endloop
  endfacet
  facet normal -1 -0 -0
    outer loop
      vertex 10 -100 0
      vertex 10 -100 10
      vertex 10 -90 0
    endloop
  endfacet
  facet normal -1 0 0
    outer loop
      vertex 10 -90 0
      vertex 10 -100 10
      vertex 10 -90 10
    endloop
  endfacet
  facet normal 0 -0 1
    outer loop
      vertex 10 -90 10
      vertex 10 -100 10
      vertex 20 -100 10
    endloop
  endfacet
  facet normal 0 0 1
    outer loop
      vertex 20 -90 10
      vertex 10 -90 10
      vertex 20 -100 10
    endloop
  endfacet
  facet normal 1 0 -0
    outer loop
      vertex 20 -100 10
      vertex 20 -100 0
      vertex 20 -90 0
    endloop
  endfacet
  facet normal 1 0 0
    outer loop
      vertex 20 -90 10
      vertex 20 -100 10
      vertex 20 -90 0
    endloop
  endfacet
  facet normal -1 -0 -0
    outer loop
      vertex 30 -100 0
      vertex 30 -100 10
      vertex 30 -90 0
    endloop
  endfacet
  facet normal -1 0 0
    outer loop
      vertex 30 -90 0
      vertex 30 -100 10
      vertex 30 -90 10
    endloop
  endfacet
  facet normal 0 -0 1
    outer loop
      vertex 30 -90 10
      vertex 30 -100 10
      vertex 50 -100 10
    endloop
  endfacet
  facet normal 0 0 1
    outer loop
      vertex 50 -90 10
      vertex 30 -90 10
      vertex 50 -100 10
    endloop
  endfacet
  facet normal 1 0 -0
    outer loop
      vertex 50 -100 10
      vertex 50 -100 0
      vertex 50 -90 0
    endloop
  endfacet
  facet normal 1 0 0
    outer loop
      vertex 50 -90 10
      vertex 50 -100 10
      vertex 50 -90 0
    endloop
  endfacet
  facet normal -1 -0 -0
    outer loop
      vertex 100 -100 0
      vertex 100 -100 10
      vertex 100 -90 0
    endloop
  endfacet
  facet normal -1 0 0
    outer loop
      vertex 100 -90 0
      vertex 100 -100 10
      vertex 100 -90 10
    endloop
  endfacet
  facet normal 0 -0 1
    outer loop
      vertex 100 -90 10
      vertex 100 -100 10
      vertex 110 -100 10
    endloop
  endfacet
  facet normal 0 0 1
    outer loop
      vertex 110 -90 10
      vertex 100 -90 10
      vertex 110 -100 10
    endloop
  endfacet
  facet normal 1 0 -0
    outer loop
      vertex 110 -90 0
      vertex 110 -100 -10
      vertex 110 110 -10
    endloop
  endfacet
  facet normal 1 0 0
    outer loop
      vertex 110 -90 0
      vertex 110 -90 10
      vertex 110 -100 10
    endloop
  endfacet
  facet normal 1 0 -0
    outer loop
      vertex 110 -100 10
      vertex 110 -100 -10
      vertex 110 -90 0
    endloop
  endfacet
  facet normal 1 0 0
    outer loop
      vertex 110 110 0
      vertex 110 -90 0
      vertex 110 110 -10
    endloop
  endfacet
  facet normal 1 0 -0
    outer loop
      vertex -10 100 10
      vertex -10 100 0
      vertex -10 110 0
    endloop
  endfacet
  facet normal 1 0 0
    outer loop
      vertex -10 110 10
      vertex -10 100 10
      vertex -10 110 0
    endloop
  endfacet
  facet normal 0 -0 1
    outer loop
      vertex -20 110 10
      vertex -20 100 10
      vertex -10 100 10
    endloop
  endfacet
  facet normal 0 0 1
    outer loop
      vertex -10 110 10
      vertex -20 110 10
      vertex -10 100 10
    endloop
  endfacet
  facet normal -1 -0 -0
    outer loop
      vertex -20 100 0
      vertex -20 100 10
      vertex -20 110 0
    endloop
  endfacet
  facet normal -1 0 0
    outer loop
      vertex -20 110 0
      vertex -20 100 10
      vertex -20 110 10
    endloop
  endfacet
  facet normal 1 0 -0
    outer loop
      vertex -30 100 10
      vertex -30 100 0
      vertex -30 110 0
    endloop
  endfacet
  facet normal 1 0 0
    outer loop
      vertex -30 110 10
      vertex -30 100 10
      vertex -30 110 0
    endloop
  endfacet
  facet normal 0 -1 0
    outer loop
      vertex -20 100 10
      vertex -20 100 0
      vertex -10 100 0
    endloop
  endfacet
  facet normal 0 -1 0
    outer loop
      vertex -10 100 10
      vertex -20 100 10
      vertex -10 100 0
    endloop
  endfacet
  facet normal 0 1 0
    outer loop
      vertex 100 -90 0
      vertex 100 -90 10
      vertex 110 -90 0
    endloop
  endfacet
  facet normal 0 1 0
    outer loop
      vertex 110 -90 0
      vertex 100 -90 10
      vertex 110 -90 10
    endloop
  endfacet
  facet normal 0 1 0
    outer loop
      vertex 30 -90 0
      vertex 30 -90 10
      vertex 50 -90 0
    endloop
  endfacet
  facet normal 0 1 0
    outer loop
      vertex 50 -90 0
      vertex 30 -90 10
      vertex 50 -90 10
    endloop
  endfacet
  facet normal 0 1 0
    outer loop
      vertex 10 -90 0
      vertex 10 -90 10
      vertex 20 -90 0
    endloop
  endfacet
  facet normal 0 1 0
    outer loop
      vertex 20 -90 0
      vertex 10 -90 10
      vertex 20 -90 10
    endloop
  endfacet
  facet normal 0 1 0
    outer loop
      vertex -20 -90 0
      vertex -20 -90 10
      vertex -10 -90 0
    endloop
  endfacet
  facet normal 0 1 0
    outer loop
      vertex -10 -90 0
      vertex -20 -90 10
      vertex -10 -90 10
    endloop
  endfacet
endsolid OpenSCAD_Model
