solid OpenSCAD_Model
  facet normal -1 0 0
    outer loop
      vertex 120 -480 0
      vertex 120 -476.04 4
      vertex 120 -476.04 0
    endloop
  endfacet
  facet normal -1 -0 0
    outer loop
      vertex 120 -476.04 4
      vertex 120 -480 0
      vertex 120 -480 4
    endloop
  endfacet
  facet normal -0 0 1
    outer loop
      vertex 120 -476.04 4
      vertex 123.96 -480 4
      vertex 123.96 -476.04 4
    endloop
  endfacet
  facet normal 0 0 1
    outer loop
      vertex 123.96 -480 4
      vertex 120 -476.04 4
      vertex 120 -480 4
    endloop
  endfacet
  facet normal 1 -0 0
    outer loop
      vertex 123.96 -480 4
      vertex 123.96 -476.04 0
      vertex 123.96 -476.04 4
    endloop
  endfacet
  facet normal 1 0 0
    outer loop
      vertex 123.96 -476.04 0
      vertex 123.96 -480 4
      vertex 123.96 -480 0
    endloop
  endfacet
  facet normal 0 1 -0
    outer loop
      vertex 123.96 -476.04 0
      vertex 120 -476.04 4
      vertex 123.96 -476.04 4
    endloop
  endfacet
  facet normal 0 1 0
    outer loop
      vertex 120 -476.04 4
      vertex 123.96 -476.04 0
      vertex 120 -476.04 0
    endloop
  endfacet
  facet normal 0 0 -1
    outer loop
      vertex 120 -480 0
      vertex 123.96 -476.04 0
      vertex 123.96 -480 0
    endloop
  endfacet
  facet normal -0 0 -1
    outer loop
      vertex 123.96 -476.04 0
      vertex 120 -480 0
      vertex 120 -476.04 0
    endloop
  endfacet
  facet normal 0 -1 0
    outer loop
      vertex 120 -480 0
      vertex 123.96 -480 4
      vertex 120 -480 4
    endloop
  endfacet
  facet normal 0 -1 -0
    outer loop
      vertex 123.96 -480 4
      vertex 120 -480 0
      vertex 123.96 -480 0
    endloop
  endfacet
  facet normal -1 0 0
    outer loop
      vertex -40 -40 -4
      vertex -40 60 0
      vertex -40 60 -4
    endloop
  endfacet
  facet normal -1 -0 0
    outer loop
      vertex -40 60 0
      vertex -40 -40 -4
      vertex -40 -40 0
    endloop
  endfacet
  facet normal -0 0 1
    outer loop
      vertex -40 60 0
      vertex 60 -40 0
      vertex 60 60 0
    endloop
  endfacet
  facet normal 0 0 1
    outer loop
      vertex 60 -40 0
      vertex -40 60 0
      vertex -40 -40 0
    endloop
  endfacet
  facet normal 1 -0 0
    outer loop
      vertex 60 -40 0
      vertex 60 60 -4
      vertex 60 60 0
    endloop
  endfacet
  facet normal 1 0 0
    outer loop
      vertex 60 60 -4
      vertex 60 -40 0
      vertex 60 -40 -4
    endloop
  endfacet
  facet normal 0 1 -0
    outer loop
      vertex 60 60 -4
      vertex -40 60 0
      vertex 60 60 0
    endloop
  endfacet
  facet normal 0 1 0
    outer loop
      vertex -40 60 0
      vertex 60 60 -4
      vertex -40 60 -4
    endloop
  endfacet
  facet normal 0 0 -1
    outer loop
      vertex -40 -40 -4
      vertex 60 60 -4
      vertex 60 -40 -4
    endloop
  endfacet
  facet normal -0 0 -1
    outer loop
      vertex 60 60 -4
      vertex -40 -40 -4
      vertex -40 60 -4
    endloop
  endfacet
  facet normal 0 -1 0
    outer loop
      vertex -40 -40 -4
      vertex 60 -40 0
      vertex -40 -40 0
    endloop
  endfacet
  facet normal 0 -1 -0
    outer loop
      vertex 60 -40 0
      vertex -40 -40 -4
      vertex 60 -40 -4
    endloop
  endfacet
endsolid OpenSCAD_Model
